<svg width="1419" height="905" viewBox="0 0 1419 905" fill="none" xmlns="http://www.w3.org/2000/svg">
<g filter="url(#filter0_f_1002_104)">
<path d="M884.26 451.359C852.428 434.945 744.263 318.173 651.5 391.5C535.547 483.159 467.836 378.279 394.657 464.382C321.478 550.486 656.421 855.098 777.127 753.775C897.833 652.451 961.096 491.836 884.26 451.359Z" fill="#FFACDF"/>
</g>
<g filter="url(#filter1_f_1002_104)">
<path d="M882.058 164.192C798.891 143.692 633.458 144.192 637.058 310.192C641.558 517.692 725.558 778.692 953.058 705.692C1180.56 632.692 1306.06 391.692 1187.06 296.692C1091.86 220.692 944.058 176.692 882.058 164.192Z" fill="#8C5AFF"/>
</g>
<g filter="url(#filter2_f_1002_104)">
<path d="M430.154 249.744C316.654 328.41 153.954 494.544 411.154 529.744C732.654 573.744 504.154 256.744 842.654 353.744C1181.15 450.744 890.154 -5.75644 430.154 249.744Z" fill="#00FFC3"/>
</g>
<defs>
<filter id="filter0_f_1002_104" x="268.314" y="251.53" width="765.503" height="638.646" filterUnits="userSpaceOnUse" color-interpolation-filters="sRGB">
<feFlood flood-opacity="0" result="BackgroundImageFix"/>
<feBlend mode="normal" in="SourceGraphic" in2="BackgroundImageFix" result="shape"/>
<feGaussianBlur stdDeviation="58" result="effect1_foregroundBlur_1002_104"/>
</filter>
<filter id="filter1_f_1002_104" x="451" y="-31" width="967.806" height="935.219" filterUnits="userSpaceOnUse" color-interpolation-filters="sRGB">
<feFlood flood-opacity="0" result="BackgroundImageFix"/>
<feBlend mode="normal" in="SourceGraphic" in2="BackgroundImageFix" result="shape"/>
<feGaussianBlur stdDeviation="93" result="effect1_foregroundBlur_1002_104"/>
</filter>
<filter id="filter2_f_1002_104" x="0" y="-103" width="1263.78" height="910.961" filterUnits="userSpaceOnUse" color-interpolation-filters="sRGB">
<feFlood flood-opacity="0" result="BackgroundImageFix"/>
<feBlend mode="normal" in="SourceGraphic" in2="BackgroundImageFix" result="shape"/>
<feGaussianBlur stdDeviation="137" result="effect1_foregroundBlur_1002_104"/>
</filter>
</defs>
</svg>
