<svg width="1440" height="800" viewBox="0 0 1440 800" fill="none" xmlns="http://www.w3.org/2000/svg">
<g opacity="0.6" filter="url(#filter0_f_4132_35201)">
<path d="M578.17 602.32C640.604 511.248 812.176 325.063 944.867 80.4807C1169.13 -332.882 1429.72 -354.558 1687.21 -244.576C1944.71 -134.594 1504.7 1294.58 1117.43 1218.13C730.164 1141.68 428.257 824.364 578.17 602.32Z" fill="url(#paint0_linear_4132_35201)"/>
</g>
<g opacity="0.4" filter="url(#filter1_f_4132_35201)">
<path d="M779.205 30.8613C689.67 -34.8448 524.289 42.3401 276.006 -285.575C47.4779 -587.399 -355.355 -246.47 -617.815 -64.2847C-880.275 117.9 1.50679 1164.22 415.814 973.236C830.121 782.253 994.931 191.773 779.205 30.8613Z" fill="url(#paint1_linear_4132_35201)"/>
</g>
<g filter="url(#filter2_f_4132_35201)">
<ellipse cx="663.34" cy="280.023" rx="891.214" ry="995.426" transform="rotate(-24.8848 663.34 280.023)" fill="url(#paint2_linear_4132_35201)"/>
</g>
<defs>
<filter id="filter0_f_4132_35201" x="340.235" y="-499.956" width="1622.64" height="1919.81" filterUnits="userSpaceOnUse" color-interpolation-filters="sRGB">
<feFlood flood-opacity="0" result="BackgroundImageFix"/>
<feBlend mode="normal" in="SourceGraphic" in2="BackgroundImageFix" result="shape"/>
<feGaussianBlur stdDeviation="99.3802" result="effect1_foregroundBlur_4132_35201"/>
</filter>
<filter id="filter1_f_4132_35201" x="-864.511" y="-604.327" width="1937.43" height="1799.51" filterUnits="userSpaceOnUse" color-interpolation-filters="sRGB">
<feFlood flood-opacity="0" result="BackgroundImageFix"/>
<feBlend mode="normal" in="SourceGraphic" in2="BackgroundImageFix" result="shape"/>
<feGaussianBlur stdDeviation="99.3802" result="effect1_foregroundBlur_4132_35201"/>
</filter>
<filter id="filter2_f_4132_35201" x="-446.145" y="-896.776" width="2218.97" height="2353.6" filterUnits="userSpaceOnUse" color-interpolation-filters="sRGB">
<feFlood flood-opacity="0" result="BackgroundImageFix"/>
<feBlend mode="normal" in="SourceGraphic" in2="BackgroundImageFix" result="shape"/>
<feGaussianBlur stdDeviation="99.3802" result="effect1_foregroundBlur_4132_35201"/>
</filter>
<linearGradient id="paint0_linear_4132_35201" x1="1456.5" y1="783.002" x2="807.37" y2="489.308" gradientUnits="userSpaceOnUse">
<stop offset="0.323745" stop-color="#CBACFF"/>
<stop offset="0.753055" stop-color="white" stop-opacity="0.5"/>
</linearGradient>
<linearGradient id="paint1_linear_4132_35201" x1="13.501" y1="789.999" x2="731.945" y2="321.319" gradientUnits="userSpaceOnUse">
<stop stop-color="#80B1FF"/>
<stop offset="1" stop-color="white" stop-opacity="0.5"/>
</linearGradient>
<linearGradient id="paint2_linear_4132_35201" x1="641.224" y1="-584.097" x2="612.591" y2="1188.9" gradientUnits="userSpaceOnUse">
<stop offset="0.0868695" stop-color="#E5FFF7"/>
<stop offset="0.455" stop-color="white" stop-opacity="0.7725"/>
<stop offset="1" stop-color="white" stop-opacity="0.5"/>
</linearGradient>
</defs>
</svg>
