<svg width="160" height="33" viewBox="0 0 160 33" fill="none" xmlns="http://www.w3.org/2000/svg">
  <path
	d="M149.208 30.818C150.149 32.1376 151.693 33 153.443 33C156.309 33 158.63 30.6933 158.63 27.8463C158.63 25.2487 156.692 23.1048 154.175 22.7516C153.935 26.2254 152.115 29.0274 149.208 30.818ZM34.3599 0.765428H19.9007V11.5403H10.1891V0.765428H0V32.2346H10.1891V20.9887H19.9007V32.2346H34.3669C27.6776 30.1773 22.8915 24.1404 22.8915 16.5104C22.8915 8.84918 27.6741 2.82273 34.3599 0.765428ZM45.7935 16.4411C45.7935 12.988 42.9769 10.1861 39.498 10.1861C36.0227 10.1861 33.2026 12.9846 33.2026 16.4411C33.2026 19.8942 36.0192 22.6962 39.498 22.6962C42.9734 22.6927 45.7935 19.8942 45.7935 16.4411ZM78.4593 3.22103C76.7791 2.00189 74.8619 1.09446 72.7983 0.564547C72.5996 0.509131 72.4009 0.460642 72.1987 0.412154C72.1325 0.3983 72.0662 0.384446 71.9965 0.370592C70.9089 0.135076 69.7621 0 68.5351 0C68.5037 0 68.4723 0.00346348 68.4375 0.00346348C68.4166 0.00346348 68.3956 0 68.3747 0C68.298 0 68.2283 0.00692695 68.1551 0.0103904C67.9181 0.0138539 67.681 0.0242443 67.4475 0.0380982C66.3251 0.0969773 65.2584 0.256297 64.2579 0.522985C57.2723 2.25819 51.8972 8.21883 51.8972 16.4896C51.8972 25.1968 57.9102 31.386 65.478 32.7125C66.4052 32.8857 67.3743 32.9792 68.3782 32.9792C68.3991 32.9792 68.4235 32.9758 68.4444 32.9758C68.4758 32.9758 68.5072 32.9792 68.5386 32.9792C69.5773 32.9792 70.5778 32.8788 71.5364 32.6917C74.0741 32.2346 76.4305 31.2232 78.4418 29.7617C75.6183 27.6801 73.5163 24.705 72.5264 21.1653C71.4527 22.0589 70.0688 22.5957 68.556 22.5957C65.1329 22.5957 62.3617 19.8388 62.3617 16.4411C62.3617 13.0435 65.1364 10.2865 68.556 10.2865C70.0793 10.2865 71.4736 10.8372 72.5542 11.7446C73.5582 8.22922 75.6532 5.28526 78.4593 3.22103ZM94.9438 16.4411C94.9438 12.988 92.1272 10.1861 88.6484 10.1861C85.173 10.1861 82.3529 12.9846 82.3529 16.4411C82.3529 19.8942 85.1695 22.6962 88.6484 22.6962C92.1237 22.6927 94.9438 19.8942 94.9438 16.4411ZM124.803 16.4411C124.803 19.8942 121.987 22.6962 118.508 22.6962C115.033 22.6962 112.213 19.8977 112.213 16.4411C112.213 12.988 115.029 10.1861 118.508 10.1861C121.987 10.1861 124.803 12.9846 124.803 16.4411ZM143.048 21.4493C142.236 20.67 140.382 20.2406 138.513 19.6829H138.51C138.224 19.5998 137.935 19.5098 137.645 19.4162H137.642C136.763 19.1357 135.875 18.8171 135.01 18.4395C135.01 18.4395 135.01 18.4395 135.007 18.4395C131.441 16.8914 128.303 14.3804 128.303 9.67349C128.303 7.62657 128.903 5.8602 129.983 4.41247C127.017 1.64169 122.991 0 118.512 0C109.278 0 101.905 6.99622 101.905 16.5104C101.905 25.9795 109.274 33 118.512 33C122.757 33 126.592 31.5176 129.509 29.0066C129.732 28.8161 129.952 28.6187 130.161 28.4144C130.248 28.3278 130.336 28.2412 130.423 28.1546C130.604 27.9745 130.778 27.7875 130.949 27.597C131.04 27.4965 131.127 27.3961 131.217 27.2957C131.381 27.1017 131.542 26.9043 131.695 26.7069C131.775 26.6064 131.855 26.506 131.932 26.4021C132.113 26.1562 132.284 25.9033 132.451 25.647C132.493 25.5847 132.535 25.5258 132.577 25.4635C133.445 24.0919 134.118 22.5715 134.55 20.9298C137.457 23.3646 140.263 23.6382 141.211 23.6382C142.139 23.6382 143.477 23.3923 143.477 22.3567C143.474 22.0069 143.32 21.7091 143.048 21.4493ZM152.551 4.24969L146.44 10.7091C144.153 9.17821 142.003 8.5063 140.758 8.5063C139.74 8.5063 139.015 8.97733 139.015 9.63193C139.015 10.7783 141.776 11.3637 144.767 12.2642C146.593 12.8114 149.581 13.6288 151.704 15.6861C152.882 16.8256 153.785 18.353 154.091 20.4207H157.347L160 0.661524H145.907C148.368 1.37846 150.672 2.59068 152.551 4.24969Z"
	fill="white"
  />
</svg>